# xmcd CD database file
#
# Track frame offsets:
#	150
#	26032
#	55965
#	73619
#	101569
#	118908
#	143991
#	158618
#	182191
#
# Disc length: 2735 seconds
#
# Revision: 0
# Processed by: cddbd v1.5.2PL0 Copyright (c) Steve Scherf et al.
# Submitted via: CDex 1.70beta2
#
DISCID=800aad09
DTITLE=Margret - Com voce
DYEAR=1900
DGENRE=Jazz
TTITLE0=Peach trees
TTITLE1=Saudosismo
TTITLE2=Call me
TTITLE3=Wicked game
TTITLE4=By on bye tu (Farmer's trust)
TTITLE5=O trem azul
TTITLE6=E preciso Dizer adeus - All that's left is to say goodbye
TTITLE7=Into shade
TTITLE8=Half the way (if I could)
EXTD=
EXTT0=
EXTT1=
EXTT2=
EXTT3=
EXTT4=
EXTT5=
EXTT6=
EXTT7=
EXTT8=
PLAYORDER=
